<?xml version="1.0" encoding="utf-8"?>
<!-- Generator: Adobe Illustrator 16.0.3, SVG Export Plug-In . SVG Version: 6.00 Build 0)  -->
<!DOCTYPE svg PUBLIC "-//W3C//DTD SVG 1.1//EN" "http://www.w3.org/Graphics/SVG/1.1/DTD/svg11.dtd">
<svg version="1.1" id="Capa_1" xmlns="http://www.w3.org/2000/svg" xmlns:xlink="http://www.w3.org/1999/xlink" x="0px" y="0px"
	 width="20px" height="20px" viewBox="0 0 20 20" enable-background="new 0 0 20 20" xml:space="preserve">
<path fill="#F6CC0D" d="M11.199,20c-0.4,0-2.575-0.219-2.696-0.243C5.966,19.242,4,15.369,4,11c0-4.365,1.963-8.238,4.498-8.757
	C8.62,2.218,10.799,2,11.199,2c2.982,0,5.4,4.029,5.4,9S14.182,20,11.199,20L11.199,20z M12.1,16.4c1.492,0,2.7-2.418,2.7-5.4
	c0-2.982-1.208-5.4-2.7-5.4c-1.49,0-2.7,2.418-2.7,5.4C9.4,13.982,10.609,16.4,12.1,16.4z M11.387,6.874
	c0.248-0.241,0.52-0.374,0.803-0.374c0.285,0,0.557,0.133,0.806,0.375c0.062,0.061-0.027,0.534-0.267,1.421
	c-0.182,0.605-0.361,0.909-0.539,0.911c-0.178,0.001-0.356-0.299-0.535-0.901C11.414,7.412,11.324,6.934,11.387,6.874L11.387,6.874z
	 M13.579,7.895c0.172,0.493,0.309,1.072,0.396,1.722c0.088,0.651,0.119,1.314,0.101,1.958c-0.005,0.16-0.22,0.104-0.644-0.171
	c-0.296-0.227-0.472-0.544-0.527-0.951s0.008-0.908,0.191-1.503C13.375,8.124,13.536,7.772,13.579,7.895L13.579,7.895z
	 M13.854,13.225c-0.143,0.545-0.329,1.036-0.559,1.438c-0.23,0.402-0.483,0.679-0.744,0.834c-0.064,0.039-0.108-0.47-0.131-1.526
	c-0.002-0.745,0.068-1.245,0.213-1.498c0.144-0.253,0.361-0.263,0.653-0.028C13.699,12.828,13.889,13.089,13.854,13.225
	L13.854,13.225z M11.83,15.498c-0.26-0.155-0.512-0.432-0.742-0.833c-0.23-0.402-0.417-0.895-0.559-1.442
	c-0.036-0.137,0.152-0.394,0.563-0.773c0.295-0.233,0.514-0.225,0.658,0.025s0.216,0.746,0.213,1.486
	C11.939,15.023,11.895,15.537,11.83,15.498L11.83,15.498z M10.305,11.573c-0.019-0.642,0.013-1.303,0.101-1.953
	c0.088-0.651,0.225-1.232,0.397-1.726c0.043-0.123,0.203,0.227,0.48,1.049c0.184,0.601,0.248,1.105,0.193,1.513
	c-0.055,0.408-0.229,0.725-0.521,0.947C10.526,11.676,10.31,11.732,10.305,11.573L10.305,11.573z"/>
</svg>
