<?xml version="1.0" encoding="utf-8"?>
<!-- Generator: Adobe Illustrator 16.0.3, SVG Export Plug-In . SVG Version: 6.00 Build 0)  -->
<!DOCTYPE svg PUBLIC "-//W3C//DTD SVG 1.1//EN" "http://www.w3.org/Graphics/SVG/1.1/DTD/svg11.dtd">
<svg version="1.1" id="Capa_1" xmlns="http://www.w3.org/2000/svg" xmlns:xlink="http://www.w3.org/1999/xlink" x="0px" y="0px"
	 width="24px" height="24px" viewBox="0 0 24 24" enable-background="new 0 0 24 24" xml:space="preserve">
<path fill="#FFFFFF" d="M17.5,15c-0.452,0-1.092,0.063-1.756,0.154c-0.311,0.042-0.548,0.279-0.59,0.59
	C15.063,16.408,15,17.048,15,17.5s0.063,1.092,0.154,1.756c0.042,0.311,0.279,0.548,0.59,0.59C16.408,19.938,17.048,20,17.5,20
	s1.092-0.063,1.756-0.154c0.311-0.042,0.548-0.279,0.59-0.59C19.938,18.592,20,17.952,20,17.5s-0.063-1.092-0.154-1.756
	c-0.042-0.311-0.279-0.548-0.59-0.59C18.592,15.063,17.952,15,17.5,15z M15.473,13.172c-1.2,0.164-2.137,1.101-2.301,2.301
	C13.078,16.16,13,16.908,13,17.5s0.078,1.34,0.172,2.027c0.164,1.2,1.101,2.137,2.301,2.301C16.16,21.922,16.908,22,17.5,22
	s1.34-0.078,2.027-0.172c1.2-0.164,2.137-1.101,2.301-2.301C21.922,18.84,22,18.092,22,17.5s-0.078-1.34-0.172-2.027
	c-0.164-1.2-1.101-2.137-2.301-2.301C18.84,13.078,18.092,13,17.5,13S16.16,13.078,15.473,13.172z"/>
<path fill="#FFFFFF" d="M6.5,15c-0.452,0-1.091,0.063-1.756,0.154c-0.311,0.042-0.547,0.279-0.59,0.59C4.063,16.408,4,17.048,4,17.5
	s0.063,1.092,0.154,1.756c0.042,0.311,0.279,0.548,0.59,0.59C5.409,19.938,6.048,20,6.5,20s1.091-0.063,1.756-0.154
	c0.311-0.042,0.547-0.279,0.59-0.59C8.938,18.592,9,17.952,9,17.5s-0.063-1.092-0.154-1.756c-0.042-0.311-0.279-0.548-0.59-0.59
	C7.591,15.063,6.952,15,6.5,15z M4.473,13.172c-1.2,0.164-2.136,1.101-2.301,2.301C2.078,16.16,2,16.908,2,17.5
	s0.078,1.34,0.172,2.027c0.165,1.2,1.101,2.137,2.301,2.301C5.161,21.922,5.908,22,6.5,22s1.339-0.078,2.027-0.172
	c1.2-0.164,2.136-1.101,2.301-2.301C10.922,18.84,11,18.092,11,17.5s-0.078-1.34-0.172-2.027c-0.165-1.2-1.101-2.137-2.301-2.301
	C7.839,13.078,7.092,13,6.5,13S5.161,13.078,4.473,13.172z"/>
<path fill="#FFFFFF" d="M17.5,4c-0.452,0-1.092,0.063-1.756,0.153c-0.311,0.043-0.548,0.28-0.59,0.59C15.063,5.409,15,6.048,15,6.5
	s0.063,1.091,0.154,1.756c0.042,0.311,0.279,0.547,0.59,0.59C16.408,8.938,17.048,9,17.5,9s1.092-0.063,1.756-0.153
	c0.311-0.043,0.548-0.28,0.59-0.59C19.938,7.591,20,6.952,20,6.5s-0.063-1.091-0.154-1.756c-0.042-0.311-0.279-0.547-0.59-0.59
	C18.592,4.063,17.952,4,17.5,4z M15.473,2.172c-1.2,0.165-2.137,1.101-2.301,2.301C13.078,5.161,13,5.908,13,6.5
	s0.078,1.339,0.172,2.027c0.164,1.2,1.101,2.136,2.301,2.301C16.16,10.922,16.908,11,17.5,11s1.34-0.078,2.027-0.172
	c1.2-0.165,2.137-1.101,2.301-2.301C21.922,7.839,22,7.092,22,6.5s-0.078-1.339-0.172-2.027c-0.164-1.2-1.101-2.136-2.301-2.301
	C18.84,2.078,18.092,2,17.5,2S16.16,2.078,15.473,2.172z"/>
<path fill="#FFFFFF" d="M6.5,4C6.048,4,5.409,4.063,4.744,4.153c-0.311,0.043-0.547,0.28-0.59,0.59C4.063,5.409,4,6.048,4,6.5
	s0.063,1.091,0.154,1.756c0.042,0.311,0.279,0.547,0.59,0.59C5.409,8.938,6.048,9,6.5,9s1.091-0.063,1.756-0.153
	c0.311-0.043,0.547-0.28,0.59-0.59C8.938,7.591,9,6.952,9,6.5S8.938,5.409,8.846,4.744c-0.042-0.311-0.279-0.547-0.59-0.59
	C7.591,4.063,6.952,4,6.5,4z M4.473,2.172c-1.2,0.165-2.136,1.101-2.301,2.301C2.078,5.161,2,5.908,2,6.5s0.078,1.339,0.172,2.027
	c0.165,1.2,1.101,2.136,2.301,2.301C5.161,10.922,5.908,11,6.5,11s1.339-0.078,2.027-0.172c1.2-0.165,2.136-1.101,2.301-2.301
	C10.922,7.839,11,7.092,11,6.5s-0.078-1.339-0.172-2.027c-0.165-1.2-1.101-2.136-2.301-2.301C7.839,2.078,7.092,2,6.5,2
	S5.161,2.078,4.473,2.172z"/>
</svg>
