<?xml version="1.0" encoding="utf-8"?>
<!-- Generator: Adobe Illustrator 16.0.3, SVG Export Plug-In . SVG Version: 6.00 Build 0)  -->
<!DOCTYPE svg PUBLIC "-//W3C//DTD SVG 1.1//EN" "http://www.w3.org/Graphics/SVG/1.1/DTD/svg11.dtd">
<svg version="1.1" id="Capa_1" xmlns="http://www.w3.org/2000/svg" xmlns:xlink="http://www.w3.org/1999/xlink" x="0px" y="0px"
	 width="24px" height="24px" viewBox="0 0 24 24" enable-background="new 0 0 24 24" xml:space="preserve">
<path fill="#FFFFFF" d="M2,16c-0.552,0-1,0.447-1,1s0.448,1,1,1h11c0.553,0,1-0.447,1-1s-0.447-1-1-1H2z M19,16
	c-0.553,0-1,0.447-1,1s0.447,1,1,1h3c0.553,0,1-0.447,1-1s-0.447-1-1-1H19z"/>
<path fill="#FFFFFF" d="M16,19c1.104,0,2-0.896,2-2s-0.896-2-2-2s-2,0.896-2,2S14.896,19,16,19z M16,21c2.209,0,4-1.791,4-4
	s-1.791-4-4-4s-4,1.791-4,4S13.791,21,16,21z"/>
<path fill="#FFFFFF" d="M2,6C1.448,6,1,6.448,1,7s0.448,1,1,1h3c0.552,0,1-0.448,1-1S5.552,6,5,6H2z M11,6c-0.552,0-1,0.448-1,1
	s0.448,1,1,1h11c0.553,0,1-0.448,1-1s-0.447-1-1-1H11z"/>
<path fill="#FFFFFF" d="M8,9c1.104,0,2-0.896,2-2S9.104,5,8,5S6,5.896,6,7S6.896,9,8,9z M8,11c2.209,0,4-1.791,4-4s-1.791-4-4-4
	S4,4.791,4,7S5.791,11,8,11z"/>
</svg>
