<?xml version="1.0" encoding="utf-8"?>
<!-- Generator: Adobe Illustrator 16.0.3, SVG Export Plug-In . SVG Version: 6.00 Build 0)  -->
<!DOCTYPE svg PUBLIC "-//W3C//DTD SVG 1.1//EN" "http://www.w3.org/Graphics/SVG/1.1/DTD/svg11.dtd">
<svg version="1.1" id="Capa_1" xmlns="http://www.w3.org/2000/svg" xmlns:xlink="http://www.w3.org/1999/xlink" x="0px" y="0px"
	 width="13px" height="17px" viewBox="0 0 13 17" enable-background="new 0 0 13 17" xml:space="preserve">
<path fill="#A162F7" d="M6.383,0.119C6.319,0.043,6.224,0,6.125,0c-0.1,0-0.194,0.043-0.259,0.119C5.625,0.401,0,7.115,0,10.327
	c0.018,1.608,0.673,3.143,1.821,4.269c1.148,1.125,2.696,1.748,4.304,1.734c1.607,0.014,3.155-0.609,4.304-1.734
	c1.148-1.126,1.804-2.66,1.821-4.269C12.25,7.115,6.625,0.401,6.383,0.119L6.383,0.119z M8.32,14.445
	c-0.048,0.025-0.101,0.037-0.154,0.037c-0.156-0.002-0.292-0.109-0.328-0.262c-0.037-0.152,0.036-0.311,0.176-0.382
	c0.655-0.323,1.208-0.824,1.596-1.444s0.595-1.336,0.599-2.067c0-0.188,0.152-0.34,0.341-0.34c0.188,0,0.34,0.152,0.34,0.34
	c-0.004,0.857-0.246,1.696-0.699,2.424C9.735,13.479,9.088,14.064,8.32,14.445L8.32,14.445z"/>
</svg>
