<svg width="16" height="20" viewBox="0 0 16 20" fill="none" xmlns="http://www.w3.org/2000/svg">
<path d="M15.838 7.5811C15.7551 7.4166 15.6283 7.27826 15.4716 7.18143C15.3149 7.08459 15.1344 7.03304 14.9502 7.03248H9.9627V1.04747C9.97341 0.8287 9.91181 0.612489 9.78741 0.43221C9.66302 0.25193 9.48275 0.117604 9.27442 0.0499668C9.07415 -0.015925 8.85815 -0.0166655 8.65743 0.0478516C8.45671 0.112369 8.2816 0.238825 8.15722 0.409067L0.177211 11.3816C0.0772268 11.5261 0.0171901 11.6944 0.00317707 11.8696C-0.0108359 12.0448 0.0216721 12.2205 0.0974106 12.3791C0.167158 12.5604 0.288321 12.7174 0.446027 12.8308C0.603734 12.9442 0.791121 13.0091 0.985187 13.0175H5.97269V19.0025C5.97285 19.2128 6.0395 19.4178 6.16311 19.588C6.28673 19.7582 6.46098 19.8849 6.66097 19.9501C6.76119 19.9812 6.86529 19.998 6.9702 20C7.12759 20.0004 7.28284 19.9636 7.42327 19.8925C7.5637 19.8214 7.68531 19.7181 7.77817 19.591L15.7582 8.61851C15.8657 8.46967 15.93 8.29407 15.9441 8.11103C15.9581 7.92799 15.9214 7.74462 15.838 7.5811ZM7.9677 15.9302V12.02C7.9677 11.7554 7.8626 11.5017 7.67554 11.3146C7.48847 11.1276 7.23475 11.0225 6.9702 11.0225H2.98019L7.9677 4.11977V8.02998C7.9677 8.29453 8.07279 8.54825 8.25986 8.73532C8.44693 8.92239 8.70065 9.02748 8.9652 9.02748H12.9552L7.9677 15.9302Z" fill="#72767C"/>
</svg>
