<?xml version="1.0" encoding="utf-8"?>
<!-- Generator: Adobe Illustrator 16.0.3, SVG Export Plug-In . SVG Version: 6.00 Build 0)  -->
<!DOCTYPE svg PUBLIC "-//W3C//DTD SVG 1.1//EN" "http://www.w3.org/Graphics/SVG/1.1/DTD/svg11.dtd">
<svg version="1.1" id="Capa_1" xmlns="http://www.w3.org/2000/svg" xmlns:xlink="http://www.w3.org/1999/xlink" x="0px" y="0px"
	 width="21px" height="21px" viewBox="0 0 21 21" enable-background="new 0 0 21 21" xml:space="preserve">
<path fill="#72767C" d="M12.006,9.006h-1v-1c0-0.265-0.105-0.52-0.293-0.707s-0.442-0.293-0.707-0.293s-0.52,0.105-0.707,0.293
	S9.006,7.741,9.006,8.006v1h-1c-0.265,0-0.52,0.105-0.707,0.293s-0.293,0.442-0.293,0.707s0.105,0.52,0.293,0.707
	s0.442,0.293,0.707,0.293h1v1c0,0.266,0.105,0.52,0.293,0.707s0.442,0.293,0.707,0.293s0.52-0.105,0.707-0.293
	s0.293-0.441,0.293-0.707v-1h1c0.266,0,0.52-0.105,0.707-0.293s0.293-0.442,0.293-0.707s-0.105-0.52-0.293-0.707
	S12.271,9.006,12.006,9.006z M19.716,9.296l-2.351-2.29v-3.36c0-0.266-0.105-0.52-0.293-0.708s-0.441-0.292-0.707-0.292h-3.31
	l-2.34-2.35c-0.093-0.094-0.204-0.168-0.325-0.219C10.269,0.026,10.138,0,10.006,0S9.743,0.026,9.621,0.077
	C9.5,0.128,9.389,0.202,9.296,0.296l-2.29,2.35h-3.36c-0.266,0-0.52,0.105-0.708,0.292C2.751,3.126,2.646,3.38,2.646,3.646v3.36
	l-2.35,2.29C0.202,9.389,0.127,9.5,0.077,9.621C0.026,9.743,0,9.874,0,10.006s0.026,0.263,0.077,0.385
	c0.05,0.122,0.125,0.232,0.219,0.325l2.35,2.34v3.31c0,0.266,0.105,0.52,0.292,0.707c0.188,0.188,0.442,0.293,0.708,0.293h3.36
	l2.34,2.351c0.093,0.094,0.204,0.168,0.326,0.219c0.122,0.051,0.252,0.077,0.384,0.077c0.132,0,0.263-0.026,0.385-0.077
	c0.122-0.051,0.232-0.125,0.325-0.219l2.34-2.351h3.311c0.266,0,0.52-0.105,0.707-0.293s0.293-0.441,0.293-0.707v-3.31l2.35-2.34
	c0.091-0.096,0.161-0.209,0.208-0.333c0.046-0.124,0.067-0.255,0.063-0.388c-0.005-0.132-0.035-0.262-0.091-0.382
	S19.813,9.385,19.716,9.296z M15.666,11.936c-0.095,0.093-0.17,0.203-0.221,0.325c-0.053,0.122-0.079,0.253-0.08,0.386v2.719h-2.719
	c-0.133,0.001-0.264,0.027-0.386,0.079s-0.232,0.127-0.325,0.222l-1.93,1.93l-1.93-1.93c-0.092-0.095-0.203-0.17-0.325-0.222
	c-0.122-0.052-0.253-0.078-0.385-0.079h-2.72v-2.719c-0.001-0.133-0.027-0.264-0.079-0.386c-0.051-0.122-0.126-0.232-0.221-0.325
	l-1.93-1.93l1.93-1.93c0.095-0.092,0.17-0.203,0.221-0.325c0.052-0.122,0.078-0.253,0.079-0.385v-2.72h2.72
	c0.132,0,0.263-0.027,0.385-0.079C7.873,4.516,7.983,4.44,8.076,4.346l1.93-1.93l1.93,1.93c0.093,0.095,0.203,0.17,0.325,0.221
	c0.122,0.052,0.253,0.079,0.386,0.079h2.719v2.72c0.001,0.132,0.027,0.263,0.08,0.385c0.051,0.122,0.126,0.232,0.221,0.325
	l1.93,1.93L15.666,11.936z"/>
</svg>
